<svg width="1280" height="720" xmlns="http://www.w3.org/2000/svg" xmlns:xlink="http://www.w3.org/1999/xlink" overflow="hidden"><defs><filter id="fx0" x="-10%" y="-10%" width="120%" height="120%" filterUnits="userSpaceOnUse" primitiveUnits="userSpaceOnUse"><feComponentTransfer color-interpolation-filters="sRGB"><feFuncR type="discrete" tableValues="0 0"/><feFuncG type="discrete" tableValues="0 0"/><feFuncB type="discrete" tableValues="0 0"/><feFuncA type="linear" slope="0.4" intercept="0"/></feComponentTransfer><feGaussianBlur stdDeviation="1.77778 1.77778"/></filter><filter id="fx1" x="-10%" y="-10%" width="120%" height="120%" filterUnits="userSpaceOnUse" primitiveUnits="userSpaceOnUse"><feComponentTransfer color-interpolation-filters="sRGB"><feFuncR type="discrete" tableValues="0 0"/><feFuncG type="discrete" tableValues="0 0"/><feFuncB type="discrete" tableValues="0 0"/><feFuncA type="linear" slope="0.4" intercept="0"/></feComponentTransfer><feGaussianBlur stdDeviation="1.77778 1.77778"/></filter><clipPath id="clip2"><rect x="0" y="0" width="1280" height="720"/></clipPath><clipPath id="clip3"><path d="M483.667 89.5001C481.366 89.5001 479.5 91.3656 479.5 93.6668L479.5 110.333C479.5 112.635 481.366 114.5 483.667 114.5L581.333 114.5C583.635 114.5 585.5 112.635 585.5 110.333L585.5 93.6668C585.5 91.3656 583.635 89.5001 581.333 89.5001ZM1.90735e-05 1.07288e-05 1280 1.07288e-05 1280 720 1.90735e-05 720Z" fill-rule="evenodd" clip-rule="evenodd"/></clipPath><clipPath id="clip4"><rect x="-2" y="-2" width="124" height="42"/></clipPath><clipPath id="clip5"><rect x="0" y="0" width="121" height="40"/></clipPath><clipPath id="clip6"><rect x="17" y="15" width="89" height="29"/></clipPath><clipPath id="clip7"><rect x="0" y="0" width="121" height="64"/></clipPath></defs><g clip-path="url(#clip2)"><rect x="0" y="0" width="1280" height="720" fill="#FFFFFF" fill-opacity="0"/><g clip-path="url(#clip3)"><g clip-path="url(#clip4)" filter="url(#fx0)" transform="translate(475 85)"><g clip-path="url(#clip5)"><path d="M7.32849 11.4952C7.32849 9.19399 9.194 7.32848 11.4952 7.32848L109.162 7.32848C111.463 7.32848 113.328 9.19399 113.328 11.4952L113.328 28.1617C113.328 30.463 111.463 32.3285 109.162 32.3285L11.4952 32.3285C9.194 32.3285 7.32849 30.463 7.32849 28.1617Z" stroke="#FFFFFF" stroke-miterlimit="8" fill="#EB002A" fill-rule="evenodd"/></g></g><g clip-path="url(#clip6)" filter="url(#fx1)" transform="translate(474 75)"><g clip-path="url(#clip7)"><path d="M13.6758-7.80469C13.6758-6.49219 13.5078-5.3457 13.1719-4.36523 12.8359-3.38477 12.3457-2.57227 11.7012-1.92773 11.0566-1.2832 10.2656-0.800781 9.32812-0.480469 8.39062-0.160156 7.27344 0 5.97656 0L2.76562 0C2.58594 0 2.41602-0.0605469 2.25586-0.181641 2.0957-0.302734 2.01562-0.515625 2.01562-0.820312L2.01562-14.3438C2.01562-14.6484 2.0957-14.8613 2.25586-14.9824 2.41602-15.1035 2.58594-15.1641 2.76562-15.1641L6.19922-15.1641C7.51172-15.1641 8.62109-14.9941 9.52734-14.6543 10.4336-14.3145 11.1934-13.8262 11.8066-13.1895 12.4199-12.5527 12.8848-11.7812 13.2012-10.875 13.5176-9.96875 13.6758-8.94531 13.6758-7.80469ZM11.5547-7.72266C11.5547-8.54297 11.4531-9.30664 11.25-10.0137 11.0469-10.7207 10.7285-11.332 10.2949-11.8477 9.86133-12.3633 9.3125-12.7656 8.64844-13.0547 7.98437-13.3437 7.12891-13.4883 6.08203-13.4883L4.03125-13.4883 4.03125-1.6875 6.10547-1.6875C7.07422-1.6875 7.89062-1.80859 8.55469-2.05078 9.21875-2.29297 9.77344-2.66406 10.2188-3.16406 10.6641-3.66406 10.998-4.29102 11.2207-5.04492 11.4434-5.79883 11.5547-6.69141 11.5547-7.72266ZM25.2865-0.832031C25.2865-0.691406 25.2786-0.568359 25.263-0.462891 25.2474-0.357422 25.2201-0.269531 25.181-0.199219 25.1419-0.128906 25.097-0.078125 25.0462-0.046875 24.9954-0.015625 24.9388 0 24.8763 0L17.599 0C17.4193 0 17.2493-0.0605469 17.0892-0.181641 16.929-0.302734 16.849-0.515625 16.849-0.820312L16.849-14.3438C16.849-14.6484 16.929-14.8613 17.0892-14.9824 17.2493-15.1035 17.4193-15.1641 17.599-15.1641L24.7943-15.1641C24.8568-15.1641 24.9134-15.1484 24.9642-15.1172 25.015-15.0859 25.056-15.0352 25.0872-14.9648 25.1185-14.8945 25.1439-14.8066 25.1634-14.7012 25.1829-14.5957 25.1927-14.4648 25.1927-14.3086 25.1927-14.168 25.1829-14.0449 25.1634-13.9395 25.1439-13.834 25.1185-13.748 25.0872-13.6816 25.056-13.6152 25.015-13.5664 24.9642-13.5352 24.9134-13.5039 24.8568-13.4883 24.7943-13.4883L18.8646-13.4883 18.8646-8.73047 23.9505-8.73047C24.013-8.73047 24.0697-8.71289 24.1204-8.67773 24.1712-8.64258 24.2142-8.59375 24.2493-8.53125 24.2845-8.46875 24.3099-8.38281 24.3255-8.27344 24.3411-8.16406 24.349-8.03516 24.349-7.88672 24.349-7.74609 24.3411-7.625 24.3255-7.52344 24.3099-7.42187 24.2845-7.33984 24.2493-7.27734 24.2142-7.21484 24.1712-7.16992 24.1204-7.14258 24.0697-7.11523 24.013-7.10156 23.9505-7.10156L18.8646-7.10156 18.8646-1.67578 24.8763-1.67578C24.9388-1.67578 24.9954-1.66016 25.0462-1.62891 25.097-1.59766 25.1419-1.54883 25.181-1.48242 25.2201-1.41602 25.2474-1.33008 25.263-1.22461 25.2786-1.11914 25.2865-0.988281 25.2865-0.832031ZM38.0195-14.2969C38.0195-14.1484 38.0117-14.0195 37.9961-13.9102 37.9805-13.8008 37.9551-13.7129 37.9199-13.6465 37.8848-13.5801 37.8418-13.5312 37.791-13.5 37.7402-13.4687 37.6836-13.4531 37.6211-13.4531L33.3555-13.4531 33.3555-0.304688C33.3555-0.242187 33.3398-0.1875 33.3086-0.140625 33.2773-0.09375 33.2227-0.0566406 33.1445-0.0292969 33.0664-0.00195313 32.9629 0.0214844 32.834 0.0410156 32.7051 0.0605469 32.543 0.0703125 32.3477 0.0703125 32.1602 0.0703125 32 0.0605469 31.8672 0.0410156 31.7344 0.0214844 31.6289-0.00195313 31.5508-0.0292969 31.4727-0.0566406 31.418-0.09375 31.3867-0.140625 31.3555-0.1875 31.3398-0.242187 31.3398-0.304688L31.3398-13.4531 27.0742-13.4531C27.0117-13.4531 26.9551-13.4687 26.9043-13.5 26.8535-13.5312 26.8125-13.5801 26.7812-13.6465 26.75-13.7129 26.7246-13.8008 26.7051-13.9102 26.6855-14.0195 26.6758-14.1484 26.6758-14.2969 26.6758-14.4453 26.6855-14.5762 26.7051-14.6895 26.7246-14.8027 26.75-14.8945 26.7812-14.9648 26.8125-15.0352 26.8535-15.0859 26.9043-15.1172 26.9551-15.1484 27.0117-15.1641 27.0742-15.1641L37.6211-15.1641C37.6836-15.1641 37.7402-15.1484 37.791-15.1172 37.8418-15.0859 37.8848-15.0352 37.9199-14.9648 37.9551-14.8945 37.9805-14.8027 37.9961-14.6895 38.0117-14.5762 38.0195-14.4453 38.0195-14.2969ZM49.6644-0.714844C49.7269-0.542969 49.7601-0.404297 49.764-0.298828 49.7679-0.193359 49.7386-0.113281 49.6761-0.0585938 49.6136-0.00390625 49.5101 0.03125 49.3656 0.046875 49.2211 0.0625 49.0277 0.0703125 48.7855 0.0703125 48.5433 0.0703125 48.35 0.0644531 48.2054 0.0527344 48.0609 0.0410156 47.9515 0.0214844 47.8773-0.00585938 47.8031-0.0332031 47.7484-0.0703125 47.7133-0.117188 47.6781-0.164062 47.6449-0.222656 47.6136-0.292969L46.3129-3.98438 40.0082-3.98438 38.766-0.339844C38.7426-0.269531 38.7113-0.208984 38.6722-0.158203 38.6332-0.107422 38.5765-0.0644531 38.5023-0.0292969 38.4281 0.00585937 38.3226 0.03125 38.1859 0.046875 38.0492 0.0625 37.8715 0.0703125 37.6527 0.0703125 37.4261 0.0703125 37.2406 0.0605469 37.0961 0.0410156 36.9515 0.0214844 36.85-0.015625 36.7914-0.0703125 36.7328-0.125 36.7054-0.205078 36.7094-0.310547 36.7133-0.416016 36.7465-0.554688 36.809-0.726562L41.8949-14.8125C41.9261-14.8984 41.9672-14.9687 42.0179-15.0234 42.0687-15.0781 42.1429-15.1211 42.2406-15.1523 42.3383-15.1836 42.4633-15.2051 42.6156-15.2168 42.7679-15.2285 42.9613-15.2344 43.1957-15.2344 43.4457-15.2344 43.6527-15.2285 43.8168-15.2168 43.9808-15.2051 44.1136-15.1836 44.2152-15.1523 44.3168-15.1211 44.3949-15.0762 44.4496-15.0176 44.5043-14.959 44.5472-14.8867 44.5785-14.8008ZM43.1371-13.1484 43.1254-13.1484 40.5121-5.58984 45.7855-5.58984ZM54.1579-0.304688C54.1579-0.242187 54.1423-0.1875 54.111-0.140625 54.0798-0.09375 54.0251-0.0566406 53.947-0.0292969 53.8689-0.00195313 53.7653 0.0214844 53.6364 0.0410156 53.5075 0.0605469 53.3454 0.0703125 53.1501 0.0703125 52.9626 0.0703125 52.8025 0.0605469 52.6696 0.0410156 52.5368 0.0214844 52.4314-0.00195313 52.3532-0.0292969 52.2751-0.0566406 52.2204-0.09375 52.1892-0.140625 52.1579-0.1875 52.1423-0.242187 52.1423-0.304688L52.1423-14.8594C52.1423-14.9219 52.1599-14.9766 52.195-15.0234 52.2302-15.0703 52.2888-15.1074 52.3708-15.1348 52.4528-15.1621 52.5583-15.1855 52.6872-15.2051 52.8161-15.2246 52.9704-15.2344 53.1501-15.2344 53.3454-15.2344 53.5075-15.2246 53.6364-15.2051 53.7653-15.1855 53.8689-15.1621 53.947-15.1348 54.0251-15.1074 54.0798-15.0703 54.111-15.0234 54.1423-14.9766 54.1579-14.9219 54.1579-14.8594ZM66.0056-0.878906C66.0056-0.722656 65.9978-0.591797 65.9821-0.486328 65.9665-0.380859 65.9411-0.291016 65.906-0.216797 65.8708-0.142578 65.8278-0.0878906 65.7771-0.0527344 65.7263-0.0175781 65.6657 0 65.5954 0L58.8923 0C58.7126 0 58.5427-0.0605469 58.3825-0.181641 58.2224-0.302734 58.1423-0.515625 58.1423-0.820312L58.1423-14.8594C58.1423-14.9219 58.1579-14.9766 58.1892-15.0234 58.2204-15.0703 58.2751-15.1074 58.3532-15.1348 58.4314-15.1621 58.5368-15.1855 58.6696-15.2051 58.8025-15.2246 58.9626-15.2344 59.1501-15.2344 59.3454-15.2344 59.5075-15.2246 59.6364-15.2051 59.7653-15.1855 59.8689-15.1621 59.947-15.1348 60.0251-15.1074 60.0798-15.0703 60.111-15.0234 60.1423-14.9766 60.1579-14.9219 60.1579-14.8594L60.1579-1.74609 65.5954-1.74609C65.6657-1.74609 65.7263-1.72852 65.7771-1.69336 65.8278-1.6582 65.8708-1.60742 65.906-1.54102 65.9411-1.47461 65.9665-1.38672 65.9821-1.27734 65.9978-1.16797 66.0056-1.03516 66.0056-0.878906ZM76.4535-4.25391C76.4535-3.54297 76.3226-2.91016 76.0609-2.35547 75.7992-1.80078 75.4359-1.33008 74.9711-0.943359 74.5062-0.556641 73.9594-0.265625 73.3304-0.0703125 72.7015 0.125 72.0238 0.222656 71.2972 0.222656 70.7894 0.222656 70.3187 0.179687 69.8851 0.09375 69.4515 0.0078125 69.0648-0.0976562 68.725-0.222656 68.3851-0.347656 68.1-0.476562 67.8695-0.609375 67.639-0.742187 67.4789-0.855469 67.389-0.949219 67.2992-1.04297 67.2328-1.16211 67.1898-1.30664 67.1469-1.45117 67.1254-1.64453 67.1254-1.88672 67.1254-2.05859 67.1332-2.20117 67.1488-2.31445 67.1644-2.42773 67.1879-2.51953 67.2191-2.58984 67.2504-2.66016 67.2894-2.70898 67.3363-2.73633 67.3832-2.76367 67.4379-2.77734 67.5004-2.77734 67.6097-2.77734 67.764-2.71094 67.9633-2.57812 68.1625-2.44531 68.4183-2.30078 68.7308-2.14453 69.0433-1.98828 69.4203-1.8418 69.8617-1.70508 70.3031-1.56836 70.8129-1.5 71.391-1.5 71.8285-1.5 72.2289-1.55859 72.5922-1.67578 72.9554-1.79297 73.2679-1.95898 73.5297-2.17383 73.7914-2.38867 73.9926-2.65234 74.1332-2.96484 74.2738-3.27734 74.3441-3.63281 74.3441-4.03125 74.3441-4.46094 74.2465-4.82812 74.0511-5.13281 73.8558-5.4375 73.598-5.70508 73.2777-5.93555 72.9574-6.16602 72.5922-6.37695 72.182-6.56836 71.7719-6.75977 71.3519-6.95508 70.9222-7.1543 70.4926-7.35352 70.0746-7.57422 69.6683-7.81641 69.2621-8.05859 68.8988-8.34375 68.5785-8.67188 68.2582-9 67.9984-9.38477 67.7992-9.82617 67.6-10.2676 67.5004-10.7969 67.5004-11.4141 67.5004-12.0469 67.6156-12.6113 67.8461-13.1074 68.0765-13.6035 68.3969-14.0195 68.807-14.3555 69.2172-14.6914 69.7054-14.9473 70.2719-15.123 70.8383-15.2988 71.4496-15.3867 72.1058-15.3867 72.4418-15.3867 72.7797-15.3574 73.1195-15.2988 73.4594-15.2402 73.7797-15.1621 74.0804-15.0645 74.3812-14.9668 74.6488-14.8574 74.8832-14.7363 75.1176-14.6152 75.2719-14.5176 75.3461-14.4434 75.4203-14.3691 75.4691-14.3105 75.4926-14.2676 75.516-14.2246 75.5355-14.1699 75.5511-14.1035 75.5668-14.0371 75.5785-13.957 75.5863-13.8633 75.5941-13.7695 75.598-13.6484 75.598-13.5 75.598-13.3594 75.5922-13.2344 75.5804-13.125 75.5687-13.0156 75.5511-12.9238 75.5277-12.8496 75.5043-12.7754 75.4711-12.7207 75.4281-12.6855 75.3851-12.6504 75.3363-12.6328 75.2816-12.6328 75.1957-12.6328 75.0609-12.6875 74.8773-12.7969 74.6937-12.9062 74.4691-13.0293 74.2035-13.166 73.9379-13.3027 73.6234-13.4277 73.2601-13.541 72.8969-13.6543 72.4886-13.7109 72.0355-13.7109 71.6136-13.7109 71.2465-13.6543 70.934-13.541 70.6215-13.4277 70.3636-13.2773 70.1605-13.0898 69.9574-12.9023 69.8051-12.6797 69.7035-12.4219 69.6019-12.1641 69.5511-11.8906 69.5511-11.6016 69.5511-11.1797 69.6488-10.8164 69.8441-10.5117 70.0394-10.207 70.2992-9.9375 70.6234-9.70312 70.9476-9.46875 71.3168-9.25391 71.7308-9.05859 72.1449-8.86328 72.5668-8.66602 72.9965-8.4668 73.4261-8.26758 73.848-8.04883 74.2621-7.81055 74.6761-7.57227 75.0453-7.29102 75.3695-6.9668 75.6937-6.64258 75.9554-6.25977 76.1547-5.81836 76.3539-5.37695 76.4535-4.85547 76.4535-4.25391Z" fill="#FFFFFF" transform="translate(21.9543 37)"/></g></g></g><path d="M479.5 93.6668C479.5 91.3656 481.366 89.5001 483.667 89.5001L581.333 89.5001C583.635 89.5001 585.5 91.3656 585.5 93.6668L585.5 110.333C585.5 112.635 583.635 114.5 581.333 114.5L483.667 114.5C481.366 114.5 479.5 112.635 479.5 110.333Z" stroke="#FFFFFF" stroke-width="1.33333" stroke-miterlimit="8" fill="#EB002A" fill-rule="evenodd"/><text fill="#FFFFFF" font-family="Calibri,Calibri_MSFontService,sans-serif" font-weight="400" font-size="24" transform="translate(493.126 109)">DETAILS</text></g></svg>